{"title":"The City Under the Sea (1965) 720p BDRip Legendado PT-BR","uid":13876476,"size":2182272958,"categoryP":"video","categoryS":"hd___movies","magnet":"?xt=urn:btih:24bcb4ad57497143f709d02b5da08ec9d669f8f4&amp;dn=The+City+Under+the+Sea+%281965%29+720p+BDRip+Legendado+PT-BR&amp;tr=udp%3A%2F%2Ftracker.leechers-paradise.org%3A6969&amp;tr=udp%3A%2F%2Fzer0day.ch%3A1337&amp;tr=udp%3A%2F%2Fopen.demonii.com%3A1337&amp;tr=udp%3A%2F%2Ftracker.coppersurfer.tk%3A6969&amp;tr=udp%3A%2F%2Fexodus.desync.com%3A6969","seeders":1,"leechers":2,"uploader":null,"files":1,"time":1458128325,"description":"Audio: English\r\nLegendas/subtitles: Português (MKV track)\r\n\r\n=========================================\r\nWar-Gods of the Deep is one of those films whose title makes no sense, but is right in keeping with the whole tenor of the film itself. \r\nMade in 1965, it featured American B-film stars Vincent Price and Tab Hunter, and it was based on a poem by American poet and writer Edgar Allan Poe. Yet, that still does not explain the odd title.\r\n\r\nOf course, what makes War-Gods of the Deep work is that Price never concedes, with even a wink or a nod, that he is in a B film. If only he had been allowed to do Shakespeare in an A production, how much richer American cinema would have been. However, this actor was consigned to B fare because of his odd physical features and slightly fey mannerisms.\r\n\r\nFor what it is, War-Gods of the Deep is a serviceable film – neither a classic nor a piece of schlock. Yes, there is the requisite suspension of disbelief, but that aside, it is escapist nonsense that is perfect for unthinking entertainment on a late Saturday night. That the same can be said about most modern adult Hollywood A films says far more about the sorry state of cinema in America today than it does about the B films of Price or Tourneur.\r\n\r\n==========================================\r\nWar-Gods of the Deep é um daqueles filmes cujo título não faz nenhum sentido, mas é correto já que o filme também não faz.\r\nRealizado em 1965 e filmado na Inglaterra, tem no elenco as estrelas dos filmes-B Vincent Price e Tab Hunter, e foi baseado num poema do poeta americano Edgar Allan Poe. Nada disso explica o título estranho, que também é chamado de The City Under the Sea.\r\n\r\nO que faz o filme funcionar é a presença de Vincent Price, que jamais admite estar num filme-B. Se ao menos lhe fosse permitido participar de um filme de primeira linha o cinema americano teria sido muito mais rico. Entretanto, o ator sempre foi escalado para filmes-B devido as suas características fisicas e aos seus maneirismos levemente insanos.\r\n\r\nPelo que é, War-Gods of the Deep é um filme útil - nem clássico, nem ruim. É claro que requer uma certa descrença para ser apreciado, mas fora isso, seu escapismo sem sentido é perfeito para o lazer irracional de sábado à noite. O mesmo pode ser dito sobre a maioria dos filmes adultos de Hollywood atualmente, que exemplificam melhor o triste estado do cinema americano do que os filmes-B de Price e Torneur.\r\n\r\n=========================================\r\nID                             : 1\r\nFormat                         : AVC\r\nFormat/Info                    : Advanced Video Codec\r\nFormat profile                 :   \r\nFormat settings, CABAC         : Yes\r\nFormat settings, ReFrames      : 4 frames\r\nCodec ID                       : V_MPEG4/ISO/AVC\r\nDuration                       : 1h 24mn\r\nBit rate                       : 2 799 Kbps\r\nWidth                          : 1 280 pixels\r\nHeight                         : 544 pixels\r\nDisplay aspect ratio           : 2.35:1\r\nFrame rate mode                : Constant\r\nFrame rate                     : 23.976 fps\r\nColor space                    : YUV\r\nChroma subsampling             : 4:2:0\r\nBit depth                      : 8 bits\r\nScan type                      : Progressive\r\nBits/(Pixel*Frame)             : 0.168\r\nStream size                    : 1.61 GiB (79%)\r\n\r\nAudio\r\nID                             : 2\r\nFormat                         : AC-3\r\nFormat/Info                    : Audio Coding 3\r\nMode extension                 : CM (complete main)\r\nFormat settings, Endianness    : Big\r\nCodec ID                       : A_AC3\r\nDuration                       : 1h 24mn\r\nBit rate mode                  : Constant\r\nBit rate                       : 640 Kbps\r\nChannel(s)                     : 2 channels\r\nChannel positions              : Front: L R\r\nSampling rate                  : 48.0 KHz\r\nBit depth                      : 16 bits\r\nCompression mode               : Lossy\r\nDelay relative to video        : 24ms\r\nStream size                    : 387 MiB (19%)\r\nLanguage                       : English\r\nDefault                        : Yes\r\nForced                         : No\r\n\r\nText\r\nID                             : 3\r\nFormat                         : UTF-8\r\nCodec ID                       : S_TEXT/UTF8\r\nCodec ID/Info                  : UTF-8 Plain Text\r\nDefault                        : Yes\r\nForced                         : No","torrent":{"xt":"urn:btih:24bcb4ad57497143f709d02b5da08ec9d669f8f4","amp;dn":"The+City+Under+the+Sea+%281965%29+720p+BDRip+Legendado+PT-BR","amp;tr":["udp%3A%2F%2Ftracker.leechers-paradise.org%3A6969","udp%3A%2F%2Fzer0day.ch%3A1337","udp%3A%2F%2Fopen.demonii.com%3A1337","udp%3A%2F%2Ftracker.coppersurfer.tk%3A6969","udp%3A%2F%2Fexodus.desync.com%3A6969"],"infoHash":"24bcb4ad57497143f709d02b5da08ec9d669f8f4","infoHashBuffer":{"type":"Buffer","data":[36,188,180,173,87,73,113,67,247,9,208,43,93,160,142,201,214,105,248,244]},"announce":[],"urlList":[]}}